<svg width="100%" height="100%" viewBox="0 0 20 20" fill="#6E42E5" xmlns="http://www.w3.org/2000/svg"><path fill-rule="evenodd" clip-rule="evenodd" d="M9.063 3.504V5h1.874V3.504a6.567 6.567 0 015.559 5.559H15v1.874h1.496a6.567 6.567 0 01-5.558 5.559V15H9.062v1.496a6.567 6.567 0 01-5.558-5.558H5V9.062H3.504a6.567 6.567 0 015.559-5.558zm0-1.89a8.44 8.44 0 00-7.449 7.449H0v1.874h1.614a8.44 8.44 0 007.449 7.449V20h1.874v-1.614a8.44 8.44 0 007.449-7.448H20V9.062h-1.614a8.44 8.44 0 00-7.448-7.448V0H9.062v1.614zM10 8.438a1.563 1.563 0 100 3.125 1.563 1.563 0 000-3.126zM6.562 10a3.437 3.437 0 116.875 0 3.437 3.437 0 01-6.874 0z" fill="#6E42E5"></path></svg>